<?xml version="1.0" encoding="utf-8"?>
<!-- Generator: Adobe Illustrator 21.0.0, SVG Export Plug-In . SVG Version: 6.00 Build 0)  -->
<svg version="1.1" xmlns="http://www.w3.org/2000/svg" xmlns:xlink="http://www.w3.org/1999/xlink" x="0px" y="0px"
	 viewBox="0 0 512 512" style="enable-background:new 0 0 512 512;" xml:space="preserve">
<style type="text/css">
	.st0{opacity:0.69;fill:#FF0000;}
	.st1{opacity:0.69;fill:#01A0C6;}
</style>
<g id="Layer_4">
	<path class="st0" d="M239.2,23.7c-126.4,0-228.9,100-228.9,223.4c0,43.1,12.5,83.3,34.2,117.5L5.5,486l127.8-40.8
		c31.7,16.2,67.7,25.3,105.9,25.3c126.4,0,228.9-100,228.9-223.4C468.1,123.8,365.6,23.7,239.2,23.7z M239.2,432.4
		c-104.9,0-189.9-83-189.9-185.3c0-102.3,85-185.3,189.9-185.3s189.9,83,189.9,185.3C429.1,349.4,344.1,432.4,239.2,432.4z"/>
	<path class="st0" d="M275.7,309.9c0,0-58.6-15.4-82.4-73.3c0,0,16.1-18.8,18.8-24.4c2.8-5.6-23-56.5-23-56.5s-9.1-10.5-31.4,0
		c-22.3,10.5-22.3,49.6-20.9,55.1c1.4,5.6,9,37.3,29.3,62.1c20.5,25,53,67,94.9,76.8c41.9,9.8,42.2,10.5,61.1,7.7
		c18.8-2.8,42.9-27.3,38.7-48.9c0,0-47.5-29.3-54.4-28.6c-7,0.7-21.6,21.6-21.6,21.6L275.7,309.9z"/>
</g>
<g id="Layer_5">
	<path class="st1" d="M280.1,33.8c-126.4,0-228.9,100-228.9,223.4c0,43.1,12.5,83.3,34.2,117.5L46.5,496l127.8-40.8
		c31.7,16.2,67.7,25.3,105.9,25.3c126.4,0,228.9-100,228.9-223.4C509,133.8,406.5,33.8,280.1,33.8z M280.1,442.5
		c-104.9,0-189.9-83-189.9-185.3c0-102.3,85-185.3,189.9-185.3S470,154.8,470,257.2C470,359.5,385,442.5,280.1,442.5z"/>
	<path class="st1" d="M310.2,311.6c0,0-58.6-15.4-82.4-73.3c0,0,16.1-18.8,18.8-24.4c2.8-5.6-23-56.5-23-56.5s-9.1-10.5-31.4,0
		s-22.3,49.6-20.9,55.1c1.4,5.6,9,37.3,29.3,62.1c20.5,25,53,67,94.9,76.8c41.9,9.8,42.2,10.5,61.1,7.7
		c18.8-2.8,42.9-27.3,38.7-48.9c0,0-47.5-29.3-54.4-28.6c-7,0.7-21.6,21.6-21.6,21.6L310.2,311.6z"/>
</g>
<g id="Layer_2">
	<path d="M262.7,23.7c-126.4,0-228.9,100-228.9,223.4c0,43.1,12.5,83.3,34.2,117.5L29.1,486l127.8-40.8
		c31.7,16.2,67.7,25.3,105.9,25.3c126.4,0,228.9-100,228.9-223.4C491.6,123.8,389.1,23.7,262.7,23.7z M262.7,432.4
		c-104.9,0-189.9-83-189.9-185.3c0-102.3,85-185.3,189.9-185.3s189.9,83,189.9,185.3C452.6,349.4,367.6,432.4,262.7,432.4z"/>
</g>
<g id="Layer_3">
	<path d="M292.8,301.6c0,0-58.6-15.4-82.4-73.3c0,0,16.1-18.8,18.8-24.4c2.8-5.6-23-56.5-23-56.5s-9.1-10.5-31.4,0
		s-22.3,49.6-20.9,55.1c1.4,5.6,9,37.3,29.3,62.1c20.5,25,53,67,94.9,76.8c41.9,9.8,42.2,10.5,61.1,7.7
		c18.8-2.8,42.9-27.3,38.7-48.9c0,0-47.5-29.3-54.4-28.6c-7,0.7-21.6,21.6-21.6,21.6L292.8,301.6z"/>
</g>
</svg>
